<?xml version="1.0" standalone="no"?>
<!DOCTYPE svg PUBLIC "-//W3C//DTD SVG 20010904//EN"
 "http://www.w3.org/TR/2001/REC-SVG-20010904/DTD/svg10.dtd">
<svg version="1.0" xmlns="http://www.w3.org/2000/svg"
 width="300.000000pt" height="419.000000pt" viewBox="0 0 300.000000 419.000000"
 preserveAspectRatio="xMidYMid meet">
<metadata>
Created by potrace 1.10, written by Peter Selinger 2001-2011
</metadata>
<g transform="translate(0.000000,419.000000) scale(0.100000,-0.100000)"
fill="#5030e5" stroke="none">
<path d="M1058 4158 c-68 -34 -368 -223 -716 -453 -314 -207 -353 -241 -339
-297 4 -14 51 -85 104 -157 277 -371 431 -782 474 -1261 14 -160 6 -492 -15
-655 -46 -352 -139 -715 -268 -1049 -69 -179 -86 -249 -68 -271 30 -36 143 1
555 186 1310 586 2100 1243 2204 1833 77 435 -321 1031 -1134 1697 -195 160
-520 388 -620 435 -67 32 -98 30 -177 -8z"/>
</g>
</svg>
